<svg width="14" height="13" viewBox="0 0 14 13" fill="none" xmlns="http://www.w3.org/2000/svg">
<path d="M8.83604 5.16667C9.48004 5.16667 10.0027 5.68933 10.0027 6.33333V9.49933C10.0027 10.2952 9.68657 11.0584 9.12383 11.6211C8.5611 12.1839 7.79787 12.5 7.00204 12.5C6.20621 12.5 5.44298 12.1839 4.88025 11.6211C4.31751 11.0584 4.00137 10.2952 4.00137 9.49933V6.33333C4.00137 5.68933 4.52337 5.16667 5.16804 5.16667H8.83604ZM3.75404 5.16667C3.51392 5.45564 3.36949 5.81206 3.34071 6.18667L3.33404 6.33333V9.49933C3.33404 10.064 3.46204 10.5987 3.69004 11.076C3.29489 11.1817 2.88073 11.1951 2.47957 11.1152C2.07841 11.0353 1.70101 10.8642 1.37654 10.6151C1.05207 10.366 0.789233 10.0457 0.608349 9.67881C0.427466 9.31194 0.333382 8.90838 0.333374 8.49933V6.33333C0.333385 6.04054 0.443488 5.75845 0.641827 5.54307C0.840166 5.32769 1.11224 5.19476 1.40404 5.17067L1.50004 5.16667H3.75404ZM10.25 5.16667H12.5C13.144 5.16667 13.6667 5.68933 13.6667 6.33333V8.5C13.6668 8.90878 13.5729 9.3121 13.3923 9.67881C13.2117 10.0455 12.9492 10.3658 12.6251 10.6149C12.301 10.864 11.9239 11.0353 11.5231 11.1155C11.1223 11.1956 10.7084 11.1826 10.3134 11.0773C10.5134 10.6587 10.636 10.1973 10.6634 9.70933L10.6694 9.49933V6.33333C10.6694 5.89 10.5127 5.48333 10.25 5.16667ZM7.00004 0.5C7.53047 0.5 8.03918 0.710714 8.41425 1.08579C8.78933 1.46086 9.00004 1.96957 9.00004 2.5C9.00004 3.03043 8.78933 3.53914 8.41425 3.91421C8.03918 4.28929 7.53047 4.5 7.00004 4.5C6.46961 4.5 5.9609 4.28929 5.58583 3.91421C5.21075 3.53914 5.00004 3.03043 5.00004 2.5C5.00004 1.96957 5.21075 1.46086 5.58583 1.08579C5.9609 0.710714 6.46961 0.5 7.00004 0.5ZM11.3334 1.16667C11.7754 1.16667 12.1993 1.34226 12.5119 1.65482C12.8244 1.96738 13 2.39131 13 2.83333C13 3.27536 12.8244 3.69928 12.5119 4.01184C12.1993 4.32441 11.7754 4.5 11.3334 4.5C10.8913 4.5 10.4674 4.32441 10.1549 4.01184C9.8423 3.69928 9.66671 3.27536 9.66671 2.83333C9.66671 2.39131 9.8423 1.96738 10.1549 1.65482C10.4674 1.34226 10.8913 1.16667 11.3334 1.16667ZM2.66671 1.16667C3.10873 1.16667 3.53266 1.34226 3.84522 1.65482C4.15778 1.96738 4.33337 2.39131 4.33337 2.83333C4.33337 3.27536 4.15778 3.69928 3.84522 4.01184C3.53266 4.32441 3.10873 4.5 2.66671 4.5C2.22468 4.5 1.80076 4.32441 1.4882 4.01184C1.17564 3.69928 1.00004 3.27536 1.00004 2.83333C1.00004 2.39131 1.17564 1.96738 1.4882 1.65482C1.80076 1.34226 2.22468 1.16667 2.66671 1.16667Z" fill="#191919"/>
</svg>
