<svg width="14" height="15" viewBox="0 0 14 15" fill="none" xmlns="http://www.w3.org/2000/svg">
<path fill-rule="evenodd" clip-rule="evenodd" d="M1.57037 4.14C1.58237 4.7472 1.25197 5.568 0.822374 5.9968C0.624797 6.19427 0.468065 6.42873 0.361131 6.6868C0.254197 6.94486 0.199158 7.22146 0.199158 7.5008C0.199158 7.78014 0.254197 8.05674 0.361131 8.31481C0.468065 8.57287 0.624797 8.80733 0.822374 9.0048C1.24637 9.4272 1.55837 10.16 1.57037 10.7584C1.58157 11.288 1.78877 11.8144 2.19277 12.2176C2.56542 12.5912 3.06409 12.8123 3.59117 12.8376C4.22397 12.8696 5.05277 13.2376 5.50077 13.6856C5.69823 13.8831 5.93264 14.0397 6.19063 14.1466C6.44862 14.2534 6.72513 14.3084 7.00437 14.3084C7.28362 14.3084 7.56013 14.2534 7.81812 14.1466C8.07611 14.0397 8.31052 13.8831 8.50797 13.6856C8.95597 13.2376 9.78477 12.8696 10.4176 12.8376C10.9447 12.8123 11.4433 12.5912 11.816 12.2176C12.2046 11.8296 12.4274 11.3059 12.4376 10.7568C12.4496 10.16 12.7576 9.432 13.1808 9.0096C13.5809 8.61071 13.8062 8.0692 13.8071 7.50419C13.808 6.93919 13.5845 6.39696 13.1856 5.9968C12.7568 5.5688 12.4256 4.7472 12.4384 4.1408C12.4444 3.85449 12.3924 3.56993 12.2854 3.30429C12.1784 3.03865 12.0187 2.79743 11.816 2.5952C11.6058 2.38455 11.3537 2.22049 11.0759 2.11367C10.7982 2.00686 10.5011 1.95968 10.204 1.9752C9.63278 2.004 8.91197 1.7272 8.50797 1.3224C8.31051 1.12482 8.07604 0.968091 7.81798 0.861157C7.55992 0.754224 7.28331 0.699184 7.00397 0.699184C6.72463 0.699184 6.44803 0.754224 6.18997 0.861157C5.93191 0.968091 5.69744 1.12482 5.49997 1.3224C5.09677 1.7264 4.37517 2.004 3.80397 1.9752C3.50695 1.95979 3.21001 2.00703 2.93243 2.11384C2.65485 2.22065 2.40285 2.38466 2.19277 2.5952C1.99012 2.79734 1.83049 3.03843 1.72352 3.30392C1.61655 3.56942 1.56446 3.85383 1.57037 4.14ZM9.43278 4.8008C9.52467 4.85179 9.60561 4.92038 9.67098 5.00266C9.73636 5.08494 9.78488 5.17929 9.81378 5.28033C9.84268 5.38136 9.85139 5.48711 9.83941 5.59151C9.82743 5.69591 9.795 5.79693 9.74397 5.8888L7.52957 9.8744C7.47177 9.98265 7.39028 10.0764 7.29117 10.1488C7.14658 10.2532 6.97124 10.3064 6.79299 10.2999C6.61473 10.2934 6.44375 10.2275 6.30717 10.1128L4.09997 8.3472C4.01792 8.28154 3.94961 8.20036 3.89893 8.1083C3.84826 8.01624 3.81621 7.91509 3.80462 7.81065C3.79303 7.7062 3.80213 7.60049 3.83139 7.49956C3.86066 7.39863 3.90951 7.30445 3.97517 7.2224C4.04084 7.14035 4.12201 7.07204 4.21408 7.02136C4.30614 6.97068 4.40728 6.93864 4.51173 6.92705C4.61617 6.91546 4.72188 6.92456 4.82281 6.95382C4.92375 6.98308 5.01792 7.03194 5.09997 7.0976L6.58237 8.284L8.34477 5.1112C8.39583 5.01938 8.46447 4.93851 8.54678 4.87322C8.62909 4.80792 8.72345 4.75948 8.82449 4.73066C8.92552 4.70183 9.03124 4.69319 9.13561 4.70523C9.23998 4.71726 9.34096 4.74974 9.43278 4.8008Z" fill="#191919"/>
</svg>
