<svg width="12" height="13" viewBox="0 0 12 13" fill="none" xmlns="http://www.w3.org/2000/svg">
<path d="M0.666667 5.83333C0.477778 5.83333 0.319556 5.76933 0.192 5.64133C0.0644445 5.51333 0.000444444 5.35511 0 5.16667V1.16667C0 0.977778 0.0640001 0.819556 0.192 0.692C0.32 0.564445 0.478222 0.500444 0.666667 0.5H4.66667C4.85556 0.5 5.014 0.564 5.142 0.692C5.27 0.82 5.33378 0.978222 5.33333 1.16667V5.16667C5.33333 5.35556 5.26933 5.514 5.14133 5.642C5.01333 5.77 4.85511 5.83378 4.66667 5.83333H0.666667ZM7.33333 5.83333C7.14444 5.83333 6.98622 5.76933 6.85867 5.64133C6.73111 5.51333 6.66711 5.35511 6.66667 5.16667V1.16667C6.66667 0.977778 6.73067 0.819556 6.85867 0.692C6.98667 0.564445 7.14489 0.500444 7.33333 0.5H11.3333C11.5222 0.5 11.6807 0.564 11.8087 0.692C11.9367 0.82 12.0004 0.978222 12 1.16667V5.16667C12 5.35556 11.936 5.514 11.808 5.642C11.68 5.77 11.5218 5.83378 11.3333 5.83333H7.33333ZM0.666667 12.5C0.477778 12.5 0.319556 12.436 0.192 12.308C0.0644445 12.18 0.000444444 12.0218 0 11.8333V7.83333C0 7.64444 0.0640001 7.48622 0.192 7.35867C0.32 7.23111 0.478222 7.16711 0.666667 7.16667H4.66667C4.85556 7.16667 5.014 7.23067 5.142 7.35867C5.27 7.48667 5.33378 7.64489 5.33333 7.83333V11.8333C5.33333 12.0222 5.26933 12.1807 5.14133 12.3087C5.01333 12.4367 4.85511 12.5004 4.66667 12.5H0.666667ZM9.33333 12.5C9.14444 12.5 8.98622 12.436 8.85867 12.308C8.73111 12.18 8.66711 12.0218 8.66667 11.8333V10.5H7.31667C7.12778 10.5 6.97222 10.436 6.85 10.308C6.72778 10.18 6.66667 10.0218 6.66667 9.83333C6.66667 9.64444 6.73067 9.48622 6.85867 9.35867C6.98667 9.23111 7.14489 9.16711 7.33333 9.16667H8.66667V7.81667C8.66667 7.62778 8.73067 7.47222 8.85867 7.35C8.98667 7.22778 9.14489 7.16667 9.33333 7.16667C9.52222 7.16667 9.68067 7.23067 9.80867 7.35867C9.93667 7.48667 10.0004 7.64489 10 7.83333V9.16667H11.35C11.5389 9.16667 11.6944 9.23067 11.8167 9.35867C11.9389 9.48667 12 9.64489 12 9.83333C12 10.0222 11.936 10.1807 11.808 10.3087C11.68 10.4367 11.5218 10.5004 11.3333 10.5H10V11.85C10 12.0389 9.936 12.1944 9.808 12.3167C9.68 12.4389 9.52178 12.5 9.33333 12.5Z" fill="#191919"/>
</svg>
