<svg width="95" height="125" viewBox="0 0 95 125" fill="none" xmlns="http://www.w3.org/2000/svg">
<g opacity="0.5">
<circle cx="5" cy="8.5" r="5" fill="#FFD291"/>
<circle cx="23" cy="8.5" r="5" fill="#FFD291"/>
<circle cx="41" cy="8.5" r="5" fill="#FFD291"/>
<circle cx="59" cy="8.5" r="5" fill="#FFD291"/>
<circle cx="77" cy="8.5" r="5" fill="#FFD291"/>
<circle cx="95" cy="8.5" r="5" fill="#FFD291"/>
<circle cx="5" cy="26.5" r="5" fill="#FFD291"/>
<circle cx="23" cy="26.5" r="5" fill="#FFD291"/>
<circle cx="41" cy="26.5" r="5" fill="#FFD291"/>
<circle cx="59" cy="26.5" r="5" fill="#FFD291"/>
<circle cx="77" cy="26.5" r="5" fill="#FFD291"/>
<circle cx="95" cy="26.5" r="5" fill="#FFD291"/>
<circle cx="5" cy="44.5" r="5" fill="#FFD291"/>
<circle cx="23" cy="44.5" r="5" fill="#FFD291"/>
<circle cx="41" cy="44.5" r="5" fill="#FFD291"/>
<circle cx="59" cy="44.5" r="5" fill="#FFD291"/>
<circle cx="77" cy="44.5" r="5" fill="#FFD291"/>
<circle cx="95" cy="44.5" r="5" fill="#FFD291"/>
<circle cx="5" cy="62.5" r="5" fill="#FFD291"/>
<circle cx="23" cy="62.5" r="5" fill="#FFD291"/>
<circle cx="41" cy="62.5" r="5" fill="#FFD291"/>
<circle cx="59" cy="62.5" r="5" fill="#FFD291"/>
<circle cx="77" cy="62.5" r="5" fill="#FFD291"/>
<circle cx="95" cy="62.5" r="5" fill="#FFD291"/>
<circle cx="5" cy="80.5" r="5" fill="#FFD291"/>
<circle cx="23" cy="80.5" r="5" fill="#FFD291"/>
<circle cx="41" cy="80.5" r="5" fill="#FFD291"/>
<circle cx="59" cy="80.5" r="5" fill="#FFD291"/>
<circle cx="77" cy="80.5" r="5" fill="#FFD291"/>
<circle cx="95" cy="80.5" r="5" fill="#FFD291"/>
<circle cx="5" cy="98.5" r="5" fill="#FFD291"/>
<circle cx="23" cy="98.5" r="5" fill="#FFD291"/>
<circle cx="41" cy="98.5" r="5" fill="#FFD291"/>
<circle cx="59" cy="98.5" r="5" fill="#FFD291"/>
<circle cx="77" cy="98.5" r="5" fill="#FFD291"/>
<circle cx="95" cy="98.5" r="5" fill="#FFD291"/>
<circle cx="5" cy="116.5" r="5" fill="#FFD291"/>
<circle cx="23" cy="116.5" r="5" fill="#FFD291"/>
<circle cx="41" cy="116.5" r="5" fill="#FFD291"/>
<circle cx="59" cy="116.5" r="5" fill="#FFD291"/>
<circle cx="77" cy="116.5" r="5" fill="#FFD291"/>
<circle cx="95" cy="116.5" r="5" fill="#FFD291"/>
</g>
</svg>
