<svg width="118" height="118" viewBox="0 0 118 118" fill="none" xmlns="http://www.w3.org/2000/svg">
<circle cx="5" cy="5" r="5" fill="#FFD291"/>
<circle cx="23" cy="5" r="5" fill="#FFD291"/>
<circle cx="41" cy="5" r="5" fill="#FFD291"/>
<circle cx="59" cy="5" r="5" fill="#FFD291"/>
<circle cx="77" cy="5" r="5" fill="#FFD291"/>
<circle cx="95" cy="5" r="5" fill="#FFD291"/>
<circle cx="113" cy="5" r="5" fill="#FFD291"/>
<circle cx="5" cy="23" r="5" fill="#FFD291"/>
<circle cx="23" cy="23" r="5" fill="#FFD291"/>
<circle cx="41" cy="23" r="5" fill="#FFD291"/>
<circle cx="59" cy="23" r="5" fill="#FFD291"/>
<circle cx="77" cy="23" r="5" fill="#FFD291"/>
<circle cx="95" cy="23" r="5" fill="#FFD291"/>
<circle cx="113" cy="23" r="5" fill="#FFD291"/>
<circle cx="5" cy="41" r="5" fill="#FFD291"/>
<circle cx="23" cy="41" r="5" fill="#FFD291"/>
<circle cx="41" cy="41" r="5" fill="#FFD291"/>
<circle cx="59" cy="41" r="5" fill="#FFD291"/>
<circle cx="77" cy="41" r="5" fill="#FFD291"/>
<circle cx="95" cy="41" r="5" fill="#FFD291"/>
<circle cx="113" cy="41" r="5" fill="#FFD291"/>
<circle cx="5" cy="59" r="5" fill="#FFD291"/>
<circle cx="23" cy="59" r="5" fill="#FFD291"/>
<circle cx="41" cy="59" r="5" fill="#FFD291"/>
<circle cx="59" cy="59" r="5" fill="#FFD291"/>
<circle cx="77" cy="59" r="5" fill="#FFD291"/>
<circle cx="95" cy="59" r="5" fill="#FFD291"/>
<circle cx="113" cy="59" r="5" fill="#FFD291"/>
<circle cx="5" cy="77" r="5" fill="#FFD291"/>
<circle cx="23" cy="77" r="5" fill="#FFD291"/>
<circle cx="41" cy="77" r="5" fill="#FFD291"/>
<circle cx="59" cy="77" r="5" fill="#FFD291"/>
<circle cx="77" cy="77" r="5" fill="#FFD291"/>
<circle cx="95" cy="77" r="5" fill="#FFD291"/>
<circle cx="113" cy="77" r="5" fill="#FFD291"/>
<circle cx="5" cy="95" r="5" fill="#FFD291"/>
<circle cx="23" cy="95" r="5" fill="#FFD291"/>
<circle cx="41" cy="95" r="5" fill="#FFD291"/>
<circle cx="59" cy="95" r="5" fill="#FFD291"/>
<circle cx="77" cy="95" r="5" fill="#FFD291"/>
<circle cx="95" cy="95" r="5" fill="#FFD291"/>
<circle cx="113" cy="95" r="5" fill="#FFD291"/>
<circle cx="5" cy="113" r="5" fill="#FFD291"/>
<circle cx="23" cy="113" r="5" fill="#FFD291"/>
<circle cx="41" cy="113" r="5" fill="#FFD291"/>
<circle cx="59" cy="113" r="5" fill="#FFD291"/>
<circle cx="77" cy="113" r="5" fill="#FFD291"/>
<circle cx="95" cy="113" r="5" fill="#FFD291"/>
<circle cx="113" cy="113" r="5" fill="#FFD291"/>
</svg>
