<svg width="127" height="128" viewBox="0 0 127 128" fill="none" xmlns="http://www.w3.org/2000/svg">
<g opacity="0.5">
<circle cx="5" cy="10" r="5" fill="#FFD291"/>
<circle cx="23" cy="10" r="5" fill="#FFD291"/>
<circle cx="41" cy="10" r="5" fill="#FFD291"/>
<circle cx="59" cy="10" r="5" fill="#FFD291"/>
<circle cx="77" cy="10" r="5" fill="#FFD291"/>
<circle cx="95" cy="10" r="5" fill="#FFD291"/>
<circle cx="113" cy="10" r="5" fill="#FFD291"/>
<circle cx="5" cy="28" r="5" fill="#FFD291"/>
<circle cx="23" cy="28" r="5" fill="#FFD291"/>
<circle cx="41" cy="28" r="5" fill="#FFD291"/>
<circle cx="59" cy="28" r="5" fill="#FFD291"/>
<circle cx="77" cy="28" r="5" fill="#FFD291"/>
<circle cx="95" cy="28" r="5" fill="#FFD291"/>
<circle cx="113" cy="28" r="5" fill="#FFD291"/>
<circle cx="5" cy="46" r="5" fill="#FFD291"/>
<circle cx="23" cy="46" r="5" fill="#FFD291"/>
<circle cx="41" cy="46" r="5" fill="#FFD291"/>
<circle cx="59" cy="46" r="5" fill="#FFD291"/>
<circle cx="77" cy="46" r="5" fill="#FFD291"/>
<circle cx="95" cy="46" r="5" fill="#FFD291"/>
<circle cx="113" cy="46" r="5" fill="#FFD291"/>
<circle cx="5" cy="64" r="5" fill="#FFD291"/>
<circle cx="23" cy="64" r="5" fill="#FFD291"/>
<circle cx="41" cy="64" r="5" fill="#FFD291"/>
<circle cx="59" cy="64" r="5" fill="#FFD291"/>
<circle cx="77" cy="64" r="5" fill="#FFD291"/>
<circle cx="95" cy="64" r="5" fill="#FFD291"/>
<circle cx="113" cy="64" r="5" fill="#FFD291"/>
<circle cx="5" cy="82" r="5" fill="#FFD291"/>
<circle cx="23" cy="82" r="5" fill="#FFD291"/>
<circle cx="41" cy="82" r="5" fill="#FFD291"/>
<circle cx="59" cy="82" r="5" fill="#FFD291"/>
<circle cx="77" cy="82" r="5" fill="#FFD291"/>
<circle cx="95" cy="82" r="5" fill="#FFD291"/>
<circle cx="113" cy="82" r="5" fill="#FFD291"/>
<circle cx="5" cy="100" r="5" fill="#FFD291"/>
<circle cx="23" cy="100" r="5" fill="#FFD291"/>
<circle cx="41" cy="100" r="5" fill="#FFD291"/>
<circle cx="59" cy="100" r="5" fill="#FFD291"/>
<circle cx="77" cy="100" r="5" fill="#FFD291"/>
<circle cx="95" cy="100" r="5" fill="#FFD291"/>
<circle cx="113" cy="100" r="5" fill="#FFD291"/>
<circle cx="5" cy="118" r="5" fill="#FFD291"/>
<circle cx="23" cy="118" r="5" fill="#FFD291"/>
<circle cx="41" cy="118" r="5" fill="#FFD291"/>
<circle cx="59" cy="118" r="5" fill="#FFD291"/>
<circle cx="77" cy="118" r="5" fill="#FFD291"/>
<circle cx="95" cy="118" r="5" fill="#FFD291"/>
<circle cx="113" cy="118" r="5" fill="#FFD291"/>
</g>
</svg>
