<svg width="48" height="48" viewBox="0 0 48 48" fill="none" xmlns="http://www.w3.org/2000/svg">
<path d="M24 5.25C20.2916 5.25 16.6665 6.34967 13.5831 8.40994C10.4996 10.4702 8.09641 13.3986 6.67727 16.8247C5.25812 20.2508 4.88681 24.0208 5.61028 27.6579C6.33376 31.2951 8.11952 34.636 10.7418 37.2583C13.364 39.8805 16.7049 41.6662 20.3421 42.3897C23.9792 43.1132 27.7492 42.7419 31.1753 41.3227C34.6014 39.9036 37.5298 37.5004 39.5901 34.4169C41.6503 31.3335 42.75 27.7084 42.75 24C42.7445 19.0289 40.7674 14.2629 37.2522 10.7478C33.7371 7.23265 28.9711 5.25546 24 5.25ZM24 41.25C20.5883 41.25 17.2532 40.2383 14.4164 38.3428C11.5797 36.4474 9.3687 33.7533 8.06309 30.6013C6.75747 27.4493 6.41587 23.9809 7.08146 20.6347C7.74706 17.2885 9.38996 14.2149 11.8024 11.8024C14.2149 9.38995 17.2885 7.74705 20.6347 7.08145C23.9809 6.41586 27.4493 6.75747 30.6013 8.06308C33.7533 9.36869 36.4474 11.5797 38.3429 14.4164C40.2383 17.2532 41.25 20.5883 41.25 24C41.245 28.5735 39.426 32.9582 36.1921 36.1921C32.9582 39.426 28.5735 41.245 24 41.25ZM30.75 21V30C30.75 30.1989 30.671 30.3897 30.5303 30.5303C30.3897 30.671 30.1989 30.75 30 30.75H21C20.8011 30.75 20.6103 30.671 20.4697 30.5303C20.329 30.3897 20.25 30.1989 20.25 30C20.25 29.8011 20.329 29.6103 20.4697 29.4697C20.6103 29.329 20.8011 29.25 21 29.25H28.1888L17.4694 18.5306C17.3287 18.3899 17.2496 18.199 17.2496 18C17.2496 17.801 17.3287 17.6101 17.4694 17.4694C17.6101 17.3286 17.801 17.2496 18 17.2496C18.199 17.2496 18.3899 17.3286 18.5306 17.4694L29.25 28.1887V21C29.25 20.8011 29.329 20.6103 29.4697 20.4697C29.6103 20.329 29.8011 20.25 30 20.25C30.1989 20.25 30.3897 20.329 30.5303 20.4697C30.671 20.6103 30.75 20.8011 30.75 21Z" fill="#33BBB1"/>
</svg>
