<svg width="318" height="228" viewBox="0 0 318 228" fill="none" xmlns="http://www.w3.org/2000/svg">
<path d="M162 86.9981L160.503 86.8959L162 86.9981ZM314 164L315.334 164.686L314 164ZM211.966 204.705C211.14 204.639 210.417 205.255 210.352 206.081L209.279 219.538C209.213 220.364 209.829 221.087 210.655 221.153C211.481 221.219 212.204 220.602 212.27 219.777L213.223 207.815L225.185 208.768C226.011 208.834 226.734 208.218 226.799 207.392C226.865 206.566 226.249 205.843 225.423 205.777L211.966 204.705ZM0.586454 1.50123C0.879606 2.32629 1.25234 3.13746 1.69687 3.93474L4.31711 2.4738C3.94659 1.80927 3.64554 1.1504 3.41332 0.496834L0.586454 1.50123ZM4.81039 8.17295C5.89148 9.35883 7.12873 10.5233 8.50225 11.668L10.4229 9.36338C9.13553 8.29048 8.00104 7.21985 7.02742 6.15185L4.81039 8.17295ZM12.5181 14.7054C13.8364 15.6191 15.2408 16.5244 16.7224 17.4218L18.2766 14.8558C16.8406 13.986 15.4886 13.1141 14.227 12.2397L12.5181 14.7054ZM21.0513 19.9063C22.466 20.6785 23.9354 21.4459 25.4541 22.209L26.801 19.5284C25.3095 18.779 23.8705 18.0273 22.4887 17.273L21.0513 19.9063ZM29.8798 24.3573C31.3396 25.0431 32.8367 25.7259 34.3671 26.4058L35.5851 23.6642C34.0722 22.9921 32.5945 22.3181 31.1555 21.642L29.8798 24.3573ZM38.9066 28.3745C40.402 29.0083 41.9238 29.6399 43.4688 30.2694L44.6008 27.4911C43.0676 26.8665 41.5587 26.2402 40.0774 25.6124L38.9066 28.3745ZM48.0225 32.0936C49.5362 32.6903 51.0683 33.2853 52.6162 33.8788L53.6902 31.0776C52.1503 30.4872 50.6269 29.8956 49.1228 29.3026L48.0225 32.0936ZM57.2272 35.6258C58.7483 36.1957 60.2815 36.7643 61.8246 37.3317L62.86 34.5161C61.3221 33.9505 59.7945 33.384 58.2798 32.8165L57.2272 35.6258ZM66.4471 39.0186C67.982 39.5748 69.5241 40.13 71.071 40.6843L72.083 37.8602C70.5389 37.3068 69.0002 36.7529 67.4691 36.1981L66.4471 39.0186ZM75.6945 42.3343C77.236 42.8826 78.7801 43.4301 80.3242 43.9769L81.3257 41.149C79.7822 40.6024 78.2395 40.0554 76.6997 39.5078L75.6945 42.3343ZM84.9502 45.6139C86.4961 46.1609 88.0397 46.7073 89.579 47.2533L90.5819 44.4259C89.0414 43.8795 87.4969 43.3328 85.9509 42.7858L84.9502 45.6139ZM94.1938 48.8946C95.7423 49.4472 97.2839 49.9994 98.8163 50.5515L99.8331 47.729C98.2973 47.1758 96.7528 46.6225 95.202 46.0691L94.1938 48.8946ZM103.428 52.2234C104.967 52.7855 106.495 53.3475 108.007 53.9094L109.052 51.0973C107.533 50.5331 106.001 49.9692 104.457 49.4054L103.428 52.2234ZM112.61 55.638C114.154 56.2244 115.679 56.8109 117.182 57.3977L118.273 54.6031C116.76 54.0127 115.227 53.4229 113.675 52.8335L112.61 55.638ZM121.707 59.1927C123.246 59.8139 124.758 60.4354 126.239 61.0573L127.401 58.2915C125.906 57.6635 124.381 57.0366 122.829 56.4106L121.707 59.1927ZM130.737 62.9925C132.258 63.6633 133.737 64.3346 135.173 65.0066L136.445 62.2897C134.987 61.6072 133.487 60.9266 131.948 60.2478L130.737 62.9925ZM139.532 67.1217C141.019 67.8707 142.443 68.6202 143.801 69.3705L145.252 66.7448C143.857 65.974 142.399 65.2067 140.882 64.4426L139.532 67.1217ZM147.973 71.8135C149.404 72.706 150.729 73.5976 151.939 74.4886L153.717 72.0725C152.436 71.1293 151.047 70.1948 149.561 69.2681L147.973 71.8135ZM155.6 77.5125C156.84 78.684 157.85 79.839 158.624 80.9759L161.104 79.2871C160.182 77.9338 159.021 76.6166 157.66 75.3318L155.6 77.5125ZM160.362 84.8538C160.502 85.5367 160.55 86.2161 160.503 86.8959L163.496 87.1003C163.562 86.1412 163.493 85.1906 163.301 84.2519L160.362 84.8538ZM160.503 86.8959C160.44 87.8177 160.424 88.7212 160.454 89.6065L163.452 89.5063C163.426 88.7258 163.44 87.924 163.496 87.1003L160.503 86.8959ZM161.213 94.8562C161.672 96.5966 162.33 98.2448 163.169 99.805L165.811 98.3846C165.081 97.026 164.511 95.597 164.113 94.0902L161.213 94.8562ZM166.162 104.17C167.266 105.475 168.511 106.702 169.878 107.859L171.816 105.569C170.562 104.508 169.437 103.397 168.451 102.232L166.162 104.17ZM174.043 110.938C175.44 111.847 176.923 112.707 178.483 113.524L179.875 110.867C178.389 110.089 176.988 109.275 175.679 108.424L174.043 110.938ZM183.101 115.726C184.626 116.39 186.209 117.023 187.842 117.628L188.883 114.814C187.298 114.227 185.767 113.615 184.298 112.976L183.101 115.726ZM192.632 119.278C194.203 119.782 195.811 120.265 197.452 120.729L198.268 117.842C196.658 117.387 195.083 116.914 193.549 116.422L192.632 119.278ZM202.334 122.031C203.951 122.438 205.595 122.83 207.26 123.209L207.925 120.283C206.28 119.91 204.659 119.523 203.067 119.122L202.334 122.031ZM212.152 124.269C213.78 124.606 215.426 124.932 217.085 125.249L217.648 122.302C216.002 121.988 214.372 121.665 212.76 121.331L212.152 124.269ZM222.037 126.16C223.673 126.451 225.318 126.734 226.971 127.01L227.466 124.051C225.822 123.776 224.187 123.495 222.562 123.207L222.037 126.16ZM231.925 127.818C233.573 128.081 235.224 128.338 236.876 128.592L237.331 125.626C235.684 125.373 234.038 125.117 232.397 124.856L231.925 127.818ZM241.83 129.342C243.484 129.59 245.135 129.835 246.78 130.078L247.22 127.111C245.575 126.867 243.925 126.622 242.275 126.375L241.83 129.342ZM251.729 130.811C253.39 131.058 255.041 131.304 256.681 131.552L257.129 128.586C255.486 128.337 253.832 128.091 252.17 127.844L251.729 130.811ZM261.605 132.306C263.269 132.566 264.918 132.828 266.546 133.094L267.03 130.134C265.393 129.866 263.737 129.603 262.067 129.342L261.605 132.306ZM271.474 133.925C273.128 134.214 274.757 134.508 276.356 134.81L276.913 131.862C275.298 131.557 273.655 131.26 271.989 130.97L271.474 133.925ZM281.24 135.777C282.906 136.124 284.531 136.482 286.111 136.852L286.796 133.932C285.189 133.555 283.539 133.192 281.852 132.84L281.24 135.777ZM290.916 138.06C292.556 138.503 294.132 138.963 295.638 139.444L296.551 136.586C294.996 136.09 293.376 135.616 291.698 135.164L290.916 138.06ZM300.249 141.07C301.843 141.695 303.326 142.349 304.687 143.038L306.042 140.361C304.582 139.623 303.011 138.93 301.342 138.277L300.249 141.07ZM308.799 145.49C310.173 146.471 311.316 147.502 312.225 148.586L314.524 146.659C313.423 145.345 312.081 144.147 310.542 143.049L308.799 145.49ZM314.375 152.387C314.795 153.7 314.951 155.124 314.8 156.688L317.786 156.977C317.974 155.03 317.783 153.195 317.232 151.473L314.375 152.387ZM313.685 161.078C313.401 161.798 313.063 162.543 312.666 163.314L315.334 164.686C315.772 163.834 316.153 162.998 316.476 162.179L313.685 161.078ZM312.666 163.314C312.313 164 311.944 164.708 311.558 165.435L314.208 166.842C314.6 166.103 314.975 165.384 315.334 164.686L312.666 163.314ZM309.238 169.679C308.477 171.031 307.671 172.429 306.821 173.86L309.4 175.392C310.262 173.94 311.08 172.522 311.852 171.15L309.238 169.679ZM304.298 177.994C303.458 179.336 302.584 180.696 301.677 182.068L304.18 183.722C305.1 182.33 305.988 180.948 306.841 179.587L304.298 177.994ZM298.965 186.059C298.053 187.365 297.113 188.674 296.147 189.978L298.558 191.763C299.541 190.436 300.497 189.105 301.424 187.777L298.965 186.059ZM293.218 193.814C292.227 195.073 291.211 196.321 290.174 197.553L292.468 199.486C293.528 198.228 294.564 196.954 295.575 195.67L293.218 193.814ZM287.005 201.182C285.926 202.373 284.825 203.541 283.705 204.681L285.844 206.784C286.994 205.614 288.123 204.416 289.228 203.196L287.005 201.182ZM280.263 208.027C279.083 209.121 277.885 210.177 276.669 211.191L278.59 213.495C279.849 212.446 281.087 211.354 282.303 210.226L280.263 208.027ZM272.911 214.14C271.615 215.093 270.303 215.992 268.975 216.83L270.577 219.367C271.969 218.488 273.339 217.549 274.688 216.557L272.911 214.14ZM264.863 219.201C263.448 219.938 262.019 220.602 260.577 221.184L261.701 223.966C263.238 223.345 264.755 222.64 266.249 221.861L264.863 219.201ZM256.134 222.703C254.621 223.125 253.096 223.453 251.561 223.678L251.997 226.646C253.664 226.401 255.312 226.046 256.94 225.592L256.134 222.703ZM246.919 224.041C245.384 224.054 243.838 223.959 242.281 223.749L241.88 226.723C243.58 226.952 245.269 227.055 246.944 227.041L246.919 224.041ZM237.721 222.804C236.26 222.394 234.789 221.878 233.309 221.246L232.132 224.006C233.729 224.687 235.322 225.247 236.911 225.693L237.721 222.804ZM229.099 219.15C227.781 218.398 226.456 217.552 225.124 216.605L223.386 219.05C224.795 220.052 226.204 220.953 227.612 221.756L229.099 219.15ZM221.393 213.699C220.231 212.714 219.064 211.65 217.895 210.504L215.795 212.647C217.014 213.842 218.234 214.954 219.454 215.988L221.393 213.699ZM214.605 207.072C214.067 206.475 213.528 205.86 212.988 205.227L210.705 207.173C211.263 207.827 211.82 208.463 212.378 209.081L214.605 207.072Z" fill="#98DDD8"/>
</svg>
